#Comment line ignore any data following # character 
#Hierarchical Translation and Rotation (.htr) file 
[Header]	
#Header keywords are followed by a single value 
FileType HTR		#Single word string
DataType HTRS		#Translation followed by rotation and scale data
FileVersion 1		#integer
NumSegments 84		#integer
NumFrames 2		#integer
DataFrameRate 30		#integer, data frame rate in this file
EulerRotationOrder ZYX
CalibrationUnits mm
RotationUnits Degrees
GlobalAxisofGravity Y
BoneLengthAxis Y
ScaleFactor 1.00
[SegmentNames&Hierarchy]
#CHILD	PARENT
MASTER GLOBAL
root MASTER
chest root
L_mid_tent01 root
R_mid_tent01 root
spine01 root
Bip01_Neck chest
L_humerus chest
R_humerus chest
weapon_bone chest
Bip01_Head Bip01_Neck
eye_left_bone Bip01_Head
eye_right_bone Bip01_Head
L_forearm L_humerus
L_front_hand L_forearm
L_weapon_bone L_forearm
L_front_hand01_01 L_front_hand
L_front_hand02_01 L_front_hand
L_front_hand03_01 L_front_hand
L_front_hand01_02 L_front_hand01_01
L_front_hand02_02 L_front_hand02_01
L_front_hand03_02 L_front_hand03_01
R_forearm R_humerus
R_front_hand R_forearm
R_weapon_bone R_forearm
R_front_hand01_01 R_front_hand
R_front_hand02_01 R_front_hand
R_front_hand03_01 R_front_hand
R_front_hand01_02 R_front_hand01_01
R_front_hand02_02 R_front_hand02_01
R_front_hand03_02 R_front_hand03_01
null_rope01_connect L_mid_tent01
Rope1_Seg01 null_rope01_connect
Rope1_Seg02 Rope1_Seg01
Rope1_Seg03 Rope1_Seg02
Rope1_Seg04 Rope1_Seg03
Rope1_Seg05 Rope1_Seg04
Rope1_Seg06 Rope1_Seg05
Rope1_Seg07 Rope1_Seg06
Rope1_Seg09 Rope1_Seg07
L_mid_hand01 Rope1_Seg09
L_mid_hand02 Rope1_Seg09
L_mid_hand03 Rope1_Seg09
null_rope02_connect R_mid_tent01
Rope2_Seg01 null_rope02_connect
Rope2_Seg02 Rope2_Seg01
Rope2_Seg03 Rope2_Seg02
Rope2_Seg04 Rope2_Seg03
Rope2_Seg05 Rope2_Seg04
Rope2_Seg06 Rope2_Seg05
Rope2_Seg07 Rope2_Seg06
Rope2_Seg09 Rope2_Seg07
R_mid_hand01 Rope2_Seg09
R_mid_hand02 Rope2_Seg09
R_mid_hand03 Rope2_Seg09
spine02 spine01
spine03 spine02
pelvis spine03
null_rope03_connect pelvis
null_rope04_connect pelvis
Rope3_Seg01 null_rope03_connect
Rope3_Seg02 Rope3_Seg01
Rope3_Seg03 Rope3_Seg02
Rope3_Seg04 Rope3_Seg03
Rope3_Seg05 Rope3_Seg04
Rope3_Seg06 Rope3_Seg05
Rope3_Seg07 Rope3_Seg06
Rope3_Seg08 Rope3_Seg07
Rope3_Seg09 Rope3_Seg08
R_rear_hand01 Rope3_Seg09
R_rear_hand02 Rope3_Seg09
R_rear_hand03 Rope3_Seg09
Rope4_Seg01 null_rope04_connect
Rope4_Seg02 Rope4_Seg01
Rope4_Seg03 Rope4_Seg02
Rope4_Seg04 Rope4_Seg03
Rope4_Seg05 Rope4_Seg04
Rope4_Seg06 Rope4_Seg05
Rope4_Seg07 Rope4_Seg06
Rope4_Seg08 Rope4_Seg07
Rope4_Seg09 Rope4_Seg08
L_rear_hand01 Rope4_Seg09
L_rear_hand02 Rope4_Seg09
L_rear_hand03 Rope4_Seg09
[BasePosition]
#SegmentName Tx, Ty, Tz, Rx, Ry, Rz, BoneLength
MASTER 0.000000 0.000000 0.000000 -90.000000 0.000000 0.000000 10.000000 
root 0.000000 0.000000 0.000000 0.000000 0.000000 0.000000 10.000000 
chest 0.000000 0.000000 0.000000 0.000000 0.000000 0.000000 10.000000 
L_mid_tent01 0.000000 0.000000 0.000000 0.000000 0.000000 0.000000 10.000000 
R_mid_tent01 0.000000 0.000000 0.000000 0.000000 0.000000 0.000000 10.000000 
spine01 0.000000 0.000000 0.000000 0.000000 0.000000 0.000000 10.000000 
Bip01_Neck 0.000000 0.000000 0.000000 0.000000 0.000000 0.000000 10.000000 
L_humerus 0.000000 0.000000 0.000000 0.000000 0.000000 0.000000 10.000000 
R_humerus 0.000000 0.000000 0.000000 0.000000 0.000000 0.000000 10.000000 
weapon_bone 0.000000 0.000000 0.000000 0.000000 0.000000 0.000000 10.000000 
Bip01_Head 0.000000 0.000000 0.000000 0.000000 0.000000 0.000000 10.000000 
eye_left_bone 0.000000 0.000000 0.000000 0.000000 0.000000 0.000000 10.000000 
eye_right_bone 0.000000 0.000000 0.000000 0.000000 0.000000 0.000000 10.000000 
L_forearm 0.000000 0.000000 0.000000 0.000000 0.000000 0.000000 10.000000 
L_front_hand 0.000000 0.000000 0.000000 0.000000 0.000000 0.000000 10.000000 
L_weapon_bone 0.000000 0.000000 0.000000 0.000000 0.000000 0.000000 10.000000 
L_front_hand01_01 0.000000 0.000000 0.000000 0.000000 0.000000 0.000000 10.000000 
L_front_hand02_01 0.000000 0.000000 0.000000 0.000000 0.000000 0.000000 10.000000 
L_front_hand03_01 0.000000 0.000000 0.000000 0.000000 0.000000 0.000000 10.000000 
L_front_hand01_02 0.000000 0.000000 0.000000 0.000000 0.000000 0.000000 10.000000 
L_front_hand02_02 0.000000 0.000000 0.000000 0.000000 0.000000 0.000000 10.000000 
L_front_hand03_02 0.000000 0.000000 0.000000 0.000000 0.000000 0.000000 10.000000 
R_forearm 0.000000 0.000000 0.000000 0.000000 0.000000 0.000000 10.000000 
R_front_hand 0.000000 0.000000 0.000000 0.000000 0.000000 0.000000 10.000000 
R_weapon_bone 0.000000 0.000000 0.000000 0.000000 0.000000 0.000000 10.000000 
R_front_hand01_01 0.000000 0.000000 0.000000 0.000000 0.000000 0.000000 10.000000 
R_front_hand02_01 0.000000 0.000000 0.000000 0.000000 0.000000 0.000000 10.000000 
R_front_hand03_01 0.000000 0.000000 0.000000 0.000000 0.000000 0.000000 10.000000 
R_front_hand01_02 0.000000 0.000000 0.000000 0.000000 0.000000 0.000000 10.000000 
R_front_hand02_02 0.000000 0.000000 0.000000 0.000000 0.000000 0.000000 10.000000 
R_front_hand03_02 0.000000 0.000000 0.000000 0.000000 0.000000 0.000000 10.000000 
null_rope01_connect 0.000000 0.000000 0.000000 0.000000 0.000000 0.000000 10.000000 
Rope1_Seg01 0.000000 0.000000 0.000000 0.000000 0.000000 0.000000 10.000000 
Rope1_Seg02 0.000000 0.000000 0.000000 0.000000 0.000000 0.000000 10.000000 
Rope1_Seg03 0.000000 0.000000 0.000000 0.000000 0.000000 0.000000 10.000000 
Rope1_Seg04 0.000000 0.000000 0.000000 0.000000 0.000000 0.000000 10.000000 
Rope1_Seg05 0.000000 0.000000 0.000000 0.000000 0.000000 0.000000 10.000000 
Rope1_Seg06 0.000000 0.000000 0.000000 0.000000 0.000000 0.000000 10.000000 
Rope1_Seg07 0.000000 0.000000 0.000000 0.000000 0.000000 0.000000 10.000000 
Rope1_Seg09 0.000000 0.000000 0.000000 0.000000 0.000000 0.000000 10.000000 
L_mid_hand01 0.000000 0.000000 0.000000 0.000000 0.000000 0.000000 10.000000 
L_mid_hand02 0.000000 0.000000 0.000000 0.000000 0.000000 0.000000 10.000000 
L_mid_hand03 0.000000 0.000000 0.000000 0.000000 0.000000 0.000000 10.000000 
null_rope02_connect 0.000000 0.000000 0.000000 0.000000 0.000000 0.000000 10.000000 
Rope2_Seg01 0.000000 0.000000 0.000000 0.000000 0.000000 0.000000 10.000000 
Rope2_Seg02 0.000000 0.000000 0.000000 0.000000 0.000000 0.000000 10.000000 
Rope2_Seg03 0.000000 0.000000 0.000000 0.000000 0.000000 0.000000 10.000000 
Rope2_Seg04 0.000000 0.000000 0.000000 0.000000 0.000000 0.000000 10.000000 
Rope2_Seg05 0.000000 0.000000 0.000000 0.000000 0.000000 0.000000 10.000000 
Rope2_Seg06 0.000000 0.000000 0.000000 0.000000 0.000000 0.000000 10.000000 
Rope2_Seg07 0.000000 0.000000 0.000000 0.000000 0.000000 0.000000 10.000000 
Rope2_Seg09 0.000000 0.000000 0.000000 0.000000 0.000000 0.000000 10.000000 
R_mid_hand01 0.000000 0.000000 0.000000 0.000000 0.000000 0.000000 10.000000 
R_mid_hand02 0.000000 0.000000 0.000000 0.000000 0.000000 0.000000 10.000000 
R_mid_hand03 0.000000 0.000000 0.000000 0.000000 0.000000 0.000000 10.000000 
spine02 0.000000 0.000000 0.000000 0.000000 0.000000 0.000000 10.000000 
spine03 0.000000 0.000000 0.000000 0.000000 0.000000 0.000000 10.000000 
pelvis 0.000000 0.000000 0.000000 0.000000 0.000000 0.000000 10.000000 
null_rope03_connect 0.000000 0.000000 0.000000 0.000000 0.000000 0.000000 10.000000 
null_rope04_connect 0.000000 0.000000 0.000000 0.000000 0.000000 0.000000 10.000000 
Rope3_Seg01 0.000000 0.000000 0.000000 0.000000 0.000000 0.000000 10.000000 
Rope3_Seg02 0.000000 0.000000 0.000000 0.000000 0.000000 0.000000 10.000000 
Rope3_Seg03 0.000000 0.000000 0.000000 0.000000 0.000000 0.000000 10.000000 
Rope3_Seg04 0.000000 0.000000 0.000000 0.000000 0.000000 0.000000 10.000000 
Rope3_Seg05 0.000000 0.000000 0.000000 0.000000 0.000000 0.000000 10.000000 
Rope3_Seg06 0.000000 0.000000 0.000000 0.000000 0.000000 0.000000 10.000000 
Rope3_Seg07 0.000000 0.000000 0.000000 0.000000 0.000000 0.000000 10.000000 
Rope3_Seg08 0.000000 0.000000 0.000000 0.000000 0.000000 0.000000 10.000000 
Rope3_Seg09 0.000000 0.000000 0.000000 0.000000 0.000000 0.000000 10.000000 
R_rear_hand01 0.000000 0.000000 0.000000 0.000000 0.000000 0.000000 10.000000 
R_rear_hand02 0.000000 0.000000 0.000000 0.000000 0.000000 0.000000 10.000000 
R_rear_hand03 0.000000 0.000000 0.000000 0.000000 0.000000 0.000000 10.000000 
Rope4_Seg01 0.000000 0.000000 0.000000 0.000000 0.000000 0.000000 10.000000 
Rope4_Seg02 0.000000 0.000000 0.000000 0.000000 0.000000 0.000000 10.000000 
Rope4_Seg03 0.000000 0.000000 0.000000 0.000000 0.000000 0.000000 10.000000 
Rope4_Seg04 0.000000 0.000000 0.000000 0.000000 0.000000 0.000000 10.000000 
Rope4_Seg05 0.000000 0.000000 0.000000 0.000000 0.000000 0.000000 10.000000 
Rope4_Seg06 0.000000 0.000000 0.000000 0.000000 0.000000 0.000000 10.000000 
Rope4_Seg07 0.000000 0.000000 0.000000 0.000000 0.000000 0.000000 10.000000 
Rope4_Seg08 0.000000 0.000000 0.000000 0.000000 0.000000 0.000000 10.000000 
Rope4_Seg09 0.000000 0.000000 0.000000 0.000000 0.000000 0.000000 10.000000 
L_rear_hand01 0.000000 0.000000 0.000000 0.000000 0.000000 0.000000 10.000000 
L_rear_hand02 0.000000 0.000000 0.000000 0.000000 0.000000 0.000000 10.000000 
L_rear_hand03 0.000000 0.000000 0.000000 0.000000 0.000000 0.000000 10.000000 
#Beginning of Data. Separated by tabs
#Fr	Tx	Ty	Tz	Rx	Ry	Rz	SF
[MASTER]
23 5400.877930 0.000816 0.000000 0.001946 0.001313 22.001459 5400.877930
24 5518.056641 0.000833 0.000000 0.001949 0.001308 22.248386 5518.057129
[root]
23 -16.502075 -62.822266 1500.000000 -91.629723 -27.676090 -90.148125 1501.405640
24 -16.502481 -62.822163 1500.000000 -91.629700 -27.676081 -90.148109 1501.405640
[chest]
23 -84.512650 -34.090519 0.000000 -4.168523 8.666588 174.225327 91.129311
24 -84.512650 -34.090519 0.000000 -4.416476 6.168990 177.009109 91.129311
[L_mid_tent01]
23 27.299763 22.177504 -249.918182 3.862630 36.229198 81.347610 252.381088
24 27.299774 22.177504 -249.918198 3.862628 36.229202 81.347610 252.381104
[R_mid_tent01]
23 23.228794 24.509907 226.238495 160.432037 -47.061253 87.899773 228.744751
24 23.228794 24.509907 226.238495 160.695160 -47.998169 87.675140 228.744751
[spine01]
23 -0.361383 -0.195265 0.000000 -0.419415 0.320593 11.076406 0.410763
24 -0.361383 -0.195265 0.000000 -0.419415 0.320593 11.076404 0.410763
[Bip01_Neck]
23 165.484543 71.581718 0.000119 175.896118 1.177290 24.871183 180.302734
24 165.484543 71.581718 0.000119 175.896118 1.177290 24.871183 180.302734
[L_humerus]
23 -13.983130 -135.272980 -120.471481 170.940796 81.564224 -99.189163 181.680161
24 -13.983130 -135.272980 -120.471481 170.940796 81.564224 -99.189163 181.680161
[R_humerus]
23 -13.983309 -135.273102 125.287651 -159.666046 -68.957870 -101.166077 184.909012
24 -13.983309 -135.273102 125.287651 -159.666046 -68.957870 -101.166077 184.909012
[weapon_bone]
23 235.964890 -300.705902 0.000000 0.000000 -89.951546 -128.212341 382.234833
24 235.964890 -300.705902 0.000000 0.000000 -89.951546 -128.212341 382.234833
[Bip01_Head]
23 204.668442 181.886215 11.027484 -3.585366 8.053572 -55.048794 274.031708
24 227.763382 152.175125 5.367846 -1.206089 7.150336 -58.064632 273.974884
[eye_left_bone]
23 -24.626970 125.451866 -64.772606 0.000000 -90.000000 -99.840431 143.318359
24 -24.626970 125.451866 -64.772606 0.000000 -90.000000 -99.840431 143.318359
[eye_right_bone]
23 -24.626970 125.451866 64.327362 0.000000 -89.960434 80.159386 143.117676
24 -24.626970 125.451866 64.327362 0.000000 -89.960434 80.159386 143.117676
[L_forearm]
23 322.776093 0.000000 -0.000119 0.000183 0.002340 -81.045212 322.776093
24 322.776093 0.000000 -0.000119 0.000183 0.002340 -81.045212 322.776093
[L_front_hand]
23 241.149185 -0.042021 -3.300071 -177.732910 -0.049191 -80.028023 241.171753
24 241.149185 -0.042021 -3.300071 -177.732910 -0.049191 -80.028023 241.171753
[L_weapon_bone]
23 156.183838 0.000000 0.000000 0.001660 0.001660 0.001660 156.183838
24 156.183838 0.000000 0.000000 0.001660 0.001660 0.001660 156.183838
[L_front_hand01_01]
23 86.095154 20.947098 -0.655860 0.405585 -0.442306 -4.620490 88.609184
24 86.095154 20.947098 -0.655860 0.405585 -0.442306 -4.620490 88.609184
[L_front_hand02_01]
23 86.935165 -11.437475 24.513514 116.959450 3.630817 1.495453 91.046425
24 86.935165 -11.437475 24.513514 116.959450 3.630817 1.495453 91.046425
[L_front_hand03_01]
23 86.637497 -14.123976 -20.424902 -118.420097 -4.656303 -0.152527 90.126129
24 86.637497 -14.123976 -20.424902 -118.420097 -4.656303 -0.152527 90.126129
[L_front_hand01_02]
23 71.020905 -0.000179 0.000030 0.001534 0.001777 -8.378850 71.020905
24 71.020905 -0.000179 0.000030 0.001534 0.001777 -8.378850 71.020905
[L_front_hand02_02]
23 71.020927 -0.000119 0.000060 0.001534 0.001777 -8.378850 71.020927
24 71.020927 -0.000119 0.000060 0.001534 0.001777 -8.378850 71.020927
[L_front_hand03_02]
23 71.020905 -0.000060 0.000060 0.001534 0.001777 -8.378850 71.020905
24 71.020905 -0.000060 0.000060 0.001534 0.001777 -8.378850 71.020905
[R_forearm]
23 322.776428 -0.000060 0.000030 0.202513 -0.063871 -72.666046 322.776428
24 322.776428 -0.000060 0.000030 0.202513 -0.063871 -72.666046 322.776428
[R_front_hand]
23 238.847015 -0.006795 2.210259 -1.676069 -0.420464 -92.752876 238.857239
24 238.847015 -0.006795 2.210259 -1.676069 -0.420464 -92.752876 238.857239
[R_weapon_bone]
23 155.664093 0.002503 -0.000030 0.003487 0.001180 -90.988930 155.664078
24 155.664093 0.002503 -0.000030 0.003487 0.001180 -90.988930 155.664078
[R_front_hand01_01]
23 87.624611 14.231146 22.918642 -116.960213 3.496675 -1.324139 91.683487
24 87.624611 14.231146 22.918642 -116.960213 3.496675 -1.324139 91.683487
[R_front_hand02_01]
23 89.356956 14.367283 -19.491137 118.419647 -4.257089 0.609827 92.579636
24 89.356956 14.367283 -19.491137 118.419647 -4.257089 0.609827 92.579636
[R_front_hand03_01]
23 87.286232 -22.307278 -0.143439 -0.387970 -0.231462 4.232001 90.091743
24 87.286232 -22.307278 -0.143439 -0.387970 -0.231462 4.232001 90.091743
[R_front_hand01_02]
23 71.020905 0.000060 0.000119 0.001777 0.001534 8.377220 71.020905
24 71.020905 0.000060 0.000119 0.001777 0.001534 8.377220 71.020905
[R_front_hand02_02]
23 71.020844 -0.000030 -0.000119 0.001777 0.001534 8.377220 71.020836
24 71.020844 -0.000030 -0.000119 0.001777 0.001534 8.377220 71.020836
[R_front_hand03_02]
23 71.020905 0.000000 0.000030 0.001777 0.001534 8.377220 71.020905
24 71.020905 0.000000 0.000030 0.001777 0.001534 8.377220 71.020905
[null_rope01_connect]
23 328.732483 0.000000 -0.000238 -168.700592 -62.344860 -148.178986 328.732483
24 328.732483 0.000000 -0.000238 -169.165909 -62.391113 -147.656219 328.732483
[Rope1_Seg01]
23 0.000000 0.000000 0.000000 130.238495 55.838501 157.987900 0.000000
24 0.000000 0.000000 0.000000 126.888046 51.928314 155.801575 0.000000
[Rope1_Seg02]
23 139.999863 -0.000179 0.000000 -0.357864 -3.656737 4.898473 139.999863
24 139.999863 -0.000179 0.000000 -0.309670 -4.708352 5.639725 139.999863
[Rope1_Seg03]
23 139.999924 0.000060 -0.000060 -0.595216 -5.874294 7.847980 139.999924
24 139.999924 0.000060 -0.000060 -0.630454 -7.470161 8.903588 139.999924
[Rope1_Seg04]
23 139.999924 -0.000060 -0.000119 -1.204230 -9.619193 14.199948 139.999924
24 139.999924 -0.000060 -0.000119 -1.744291 -13.214828 14.561824 139.999924
[Rope1_Seg05]
23 139.999832 0.000119 -0.000060 -2.602507 -16.467751 21.130238 139.999832
24 139.999832 0.000119 -0.000060 -0.292063 -12.069326 18.488455 139.999832
[Rope1_Seg06]
23 139.999954 0.000119 -0.000060 -1.445471 -7.194966 6.354898 139.999954
24 139.999954 0.000119 -0.000060 1.785666 -3.348297 6.965736 139.999954
[Rope1_Seg07]
23 139.999985 0.000060 0.000000 -0.385023 -3.366832 3.387902 139.999985
24 139.999985 0.000060 0.000000 1.025101 -2.016010 3.714053 139.999985
[Rope1_Seg09]
23 121.602913 0.000119 -0.000089 -89.793175 -1.359789 0.847147 121.602913
24 121.602913 0.000119 -0.000089 -89.793175 -1.359789 0.847147 121.602913
[L_mid_hand01]
23 103.859421 1.038730 8.195221 105.579529 -22.648388 -6.659525 104.187431
24 103.859421 1.038730 8.195221 105.620987 -22.988335 -6.761933 104.187431
[L_mid_hand02]
23 105.572853 -4.139662 -10.864139 -139.393402 20.098043 -21.242613 106.211075
24 105.572853 -4.139662 -10.864139 -139.491974 20.327143 -21.528740 106.211075
[L_mid_hand03]
23 104.641464 17.579376 -3.913581 -17.397032 7.151557 25.563231 106.179977
24 104.641464 17.579376 -3.913581 -17.354424 7.254999 25.905664 106.179977
[null_rope02_connect]
23 328.732849 0.000179 -0.000119 -116.741005 22.384672 31.221195 328.732849
24 328.732849 0.000179 -0.000119 -117.246758 21.499762 30.679886 328.732849
[Rope2_Seg01]
23 -0.000043 0.000134 0.000153 -37.863796 53.507797 68.643211 0.000207
24 -0.000041 0.000134 0.000153 -35.866081 51.173405 71.104698 0.000207
[Rope2_Seg02]
23 139.999741 -0.000060 -0.000119 -0.180026 -6.423639 3.236901 139.999756
24 139.999741 -0.000060 -0.000119 -0.141896 -5.904459 3.263059 139.999756
[Rope2_Seg03]
23 140.000107 0.000030 0.000000 -0.272667 -8.518371 4.015091 140.000107
24 140.000107 0.000030 0.000000 -0.181418 -7.598704 3.875628 140.000107
[Rope2_Seg04]
23 139.999802 0.000000 -0.000060 -1.126442 -10.488386 1.629906 139.999802
24 139.999802 0.000000 -0.000060 -0.479091 -10.298443 4.450591 139.999802
[Rope2_Seg05]
23 139.999985 -0.000060 0.000119 3.223280 -14.808515 14.683826 139.999985
24 139.999985 -0.000060 0.000119 2.935422 -18.087835 15.390006 139.999985
[Rope2_Seg06]
23 139.999893 -0.000030 -0.000119 10.921363 -7.579105 13.527866 139.999893
24 139.999893 -0.000030 -0.000119 5.631184 -7.378826 7.872193 139.999893
[Rope2_Seg07]
23 139.999893 0.000060 -0.000060 7.152751 -2.725490 6.149347 139.999893
24 139.999893 0.000060 -0.000060 4.018920 -3.170057 3.876450 139.999893
[Rope2_Seg09]
23 121.338966 0.000089 -0.000060 33.793236 -1.359788 -0.847141 121.338966
24 121.338966 0.000089 -0.000060 33.793236 -1.359788 -0.847141 121.338966
[R_mid_hand01]
23 104.680779 11.144459 -10.335981 -44.145947 19.560667 21.759449 105.778534
24 104.680779 11.144459 -10.335981 -44.070736 19.764444 21.986286 105.778534
[R_mid_hand02]
23 104.070427 2.443552 8.231699 74.186195 -24.483601 7.232481 104.424065
24 104.070427 2.443552 8.231699 74.148849 -24.768806 7.320621 104.424065
[R_mid_hand03]
23 106.028137 -11.221827 -5.996406 -166.520828 8.347037 -28.494413 106.788818
24 106.028137 -11.221827 -5.996406 -166.566208 8.416404 -28.789036 106.788818
[spine02]
23 129.756927 0.001550 0.000119 -0.031994 -3.941140 -7.370806 129.756927
24 129.756927 0.001550 0.000119 -0.031994 -3.941140 -7.370806 129.756927
[spine03]
23 79.115746 -0.000019 0.000000 1.907030 -2.965995 23.921795 79.115746
24 79.115601 0.000038 0.000000 1.907030 -2.965995 23.921795 79.115601
[pelvis]
23 169.435242 0.051022 0.000000 -6.575613 1.957168 -4.100006 169.435257
24 169.435242 0.051022 0.000000 -3.509501 2.447347 -4.216653 169.435257
[null_rope03_connect]
23 -1.257226 -2.466202 137.391083 108.262451 -64.031883 -12.605609 137.418976
24 -1.257226 -2.466202 137.391083 101.305038 -64.789604 -6.228715 137.418976
[null_rope04_connect]
23 -1.259640 -2.480268 -137.844437 108.262451 -64.031883 -12.605609 137.872513
24 -1.259640 -2.480268 -137.844437 101.305038 -64.789604 -6.228715 137.872513
[Rope3_Seg01]
23 0.000000 0.000000 0.000000 -144.587082 -19.716564 -30.724438 0.000000
24 0.000000 0.000000 0.000000 -143.044571 -19.227455 -34.329987 0.000000
[Rope3_Seg02]
23 139.999924 -0.000119 0.000060 -51.242340 1.250271 -33.761883 139.999924
24 139.999924 -0.000119 0.000060 -53.153175 4.789438 -37.539631 139.999924
[Rope3_Seg03]
23 139.999924 -0.000119 0.000119 -56.323433 30.118238 -18.759644 139.999924
24 139.999924 -0.000119 0.000119 -51.600853 36.780636 -19.288383 139.999924
[Rope3_Seg04]
23 139.999924 0.000119 0.000000 -16.499420 31.355042 1.796288 139.999924
24 139.999924 0.000119 0.000000 -13.363102 33.124493 0.378544 139.999924
[Rope3_Seg05]
23 139.999924 -0.000238 0.000060 -3.444069 26.516518 6.041224 139.999924
24 139.999924 -0.000238 0.000060 -1.755137 24.845646 3.409274 139.999924
[Rope3_Seg06]
23 139.999893 -0.000119 -0.000060 0.523530 8.465441 3.095673 139.999893
24 139.999893 -0.000119 -0.000060 0.874995 7.803749 1.900581 139.999893
[Rope3_Seg07]
23 139.999771 0.000060 -0.000119 0.785635 4.537072 1.671183 139.999771
24 139.999771 0.000060 -0.000119 0.975869 4.376303 1.014002 139.999771
[Rope3_Seg08]
23 139.999985 -0.000060 0.000000 0.763459 2.528250 0.894135 139.999985
24 139.999985 -0.000060 0.000000 0.868730 2.455973 0.524869 139.999985
[Rope3_Seg09]
23 90.185997 -0.000179 -0.000060 89.793228 -1.359877 -0.847183 90.185997
24 90.185997 -0.000179 -0.000060 89.793228 -1.359877 -0.847183 90.185997
[R_rear_hand01]
23 103.366196 -6.073594 -10.757982 -159.959000 14.681531 -24.191771 104.101845
24 103.366196 -6.073594 -10.757982 -160.090088 14.865479 -24.717995 104.101845
[R_rear_hand02]
23 100.509819 12.039542 -7.992327 -35.841637 15.831045 23.713284 101.543350
24 100.509819 12.039542 -7.992327 -35.711582 16.148796 24.170401 101.543350
[R_rear_hand03]
23 101.539970 5.215704 5.435467 83.722893 -24.961674 6.520506 101.819031
24 101.539970 5.215704 5.435467 83.699936 -25.497597 6.583542 101.819031
[Rope4_Seg01]
23 -0.000011 -0.000009 -0.000153 46.075172 -1.988570 -92.149643 0.000153
24 -0.000010 -0.000006 -0.000153 46.368153 1.092524 -87.276169 0.000153
[Rope4_Seg02]
23 139.999985 0.000060 0.000119 13.649518 -54.517170 -13.327574 139.999985
24 139.999985 0.000060 0.000119 11.024663 -61.469151 -5.925475 139.999985
[Rope4_Seg03]
23 139.999924 0.000000 -0.000238 28.527874 -29.721394 -0.843465 139.999924
24 139.999924 0.000000 -0.000238 34.647186 -33.584587 4.153803 139.999924
[Rope4_Seg04]
23 139.999985 0.000000 0.000119 84.096878 -32.655556 15.484586 139.999985
24 139.999985 0.000000 0.000119 63.174511 -26.933180 19.172430 139.999985
[Rope4_Seg05]
23 139.999802 -0.000060 -0.000119 22.558474 10.144929 28.174492 139.999802
24 139.999802 -0.000060 -0.000119 24.897907 4.610630 28.866968 139.999802
[Rope4_Seg06]
23 139.999924 0.000000 0.000060 2.433066 5.546419 6.367868 139.999924
24 139.999924 0.000000 0.000060 3.241399 4.961946 7.322752 139.999924
[Rope4_Seg07]
23 139.999802 0.000000 0.000000 1.041174 3.187584 3.380774 139.999802
24 139.999802 0.000000 0.000000 1.379797 2.958933 3.907137 139.999802
[Rope4_Seg08]
23 139.999924 0.000000 0.000119 -1.047964 1.794366 1.840272 139.999924
24 139.999924 0.000000 0.000119 -0.892020 1.690285 2.130410 139.999924
[Rope4_Seg09]
23 90.185791 0.000060 0.000060 -135.617828 2.228885 0.850567 90.185791
24 90.185791 0.000060 0.000060 -135.617828 2.228885 0.850567 90.185791
[L_rear_hand01]
23 101.696655 -8.392275 -7.654577 -36.362705 -14.425787 158.284409 102.329041
24 101.696655 -8.392275 -7.654577 -36.242058 -14.765300 157.809067 102.329041
[L_rear_hand02]
23 102.726799 -1.568258 5.773216 83.841537 22.586632 173.765472 102.900848
24 102.726799 -1.568258 5.773216 83.814362 23.151863 173.698151 102.900848
[L_rear_hand03]
23 104.552910 9.721220 -10.420293 -159.389603 -13.851099 -158.113632 105.519653
24 104.552910 9.721220 -10.420293 -159.518845 -14.052428 -157.569275 105.519653
